<?xml version="1.0" encoding="UTF-8" standalone="no"?>
<svg width="25px" height="20px" viewBox="0 0 25 20" version="1.1" xmlns="http://www.w3.org/2000/svg" xmlns:xlink="http://www.w3.org/1999/xlink">
    <!-- Generator: Sketch 43.1 (39012) - http://www.bohemiancoding.com/sketch -->
    <title>Add to Cart</title>
    <desc>Created with Sketch.</desc>
    <defs></defs>
    <g id="Symbols" stroke="none" stroke-width="1" fill="none" fill-rule="evenodd">
        <g id="Add-to-Cart">
            <path d="M12.8,17.8666667 C12.2112,17.8666667 11.7333333,18.3445333 11.7333333,18.9333333 C11.7333333,19.5221333 12.2112,20 12.8,20 C13.3888,20 13.8666667,19.5221333 13.8666667,18.9333333 C13.8666667,18.3445333 13.3888,17.8666667 12.8,17.8666667 L12.8,17.8666667 Z M7.46666667,17.8666667 C6.87786667,17.8666667 6.4,18.3445333 6.4,18.9333333 C6.4,19.5221333 6.87786667,20 7.46666667,20 C8.05546667,20 8.53333333,19.5221333 8.53333333,18.9333333 C8.53333333,18.3445333 8.05546667,17.8666667 7.46666667,17.8666667 L7.46666667,17.8666667 Z M14.4,14.6666667 C14.4,15.2554667 13.9221333,15.7333333 13.3333333,15.7333333 L7.46666667,15.7333333 C6.87786667,15.7333333 6.4,15.2554667 6.4,14.6666667 L5.51093333,9.33333333 L15.7333333,9.33333333 L14.4,14.6666667 L14.4,14.6666667 Z M5.31733333,8.26666667 L3.98666667,4 L0.533333333,4 C0.2384,4 0,4.23893333 0,4.53333333 C0,4.82826667 0.2384,5.06666667 0.533333333,5.06666667 L3.2,5.06666667 L4.27253333,8.26666667 L4.26666667,8.26666667 L5.33333333,14.6666667 C5.33333333,15.8448 6.28853333,16.8 7.46666667,16.8 L13.3333333,16.8 C14.5114667,16.8 15.4666667,15.8448 15.4666667,14.6666667 L17.0666667,8.26666667 L5.31733333,8.26666667 L5.31733333,8.26666667 Z" id="Fill-95" fill="#8B021B"></path>
            <path d="M19.5,0.5 L19.5,8.5" id="Line" stroke="#8B021B" stroke-linecap="square"></path>
            <path d="M15.5,4.5 L23.5622577,4.5" id="Line" stroke="#8B021B" stroke-linecap="square"></path>
        </g>
    </g>
</svg>