<?xml version="1.0" encoding="UTF-8" standalone="no"?>
<svg width="20px" height="18px" viewBox="0 0 20 18" version="1.1" xmlns="http://www.w3.org/2000/svg" xmlns:xlink="http://www.w3.org/1999/xlink">
    <!-- Generator: Sketch 43.1 (39012) - http://www.bohemiancoding.com/sketch -->
    <title>Shopping Cart - white</title>
    <desc>Created with Sketch.</desc>
    <defs></defs>
    <g id="Symbols" stroke="none" stroke-width="1" fill="none" fill-rule="evenodd">
        <g id="Shopping-Cart---white" fill="#FFFFFF">
            <path d="M14.4,15.6 C13.7376,15.6 13.2,16.1376 13.2,16.8 C13.2,17.4624 13.7376,18 14.4,18 C15.0624,18 15.6,17.4624 15.6,16.8 C15.6,16.1376 15.0624,15.6 14.4,15.6 L14.4,15.6 Z M8.4,15.6 C7.7376,15.6 7.2,16.1376 7.2,16.8 C7.2,17.4624 7.7376,18 8.4,18 C9.0624,18 9.6,17.4624 9.6,16.8 C9.6,16.1376 9.0624,15.6 8.4,15.6 L8.4,15.6 Z M16.2,12 C16.2,12.6624 15.6624,13.2 15,13.2 L8.4,13.2 C7.7376,13.2 7.2,12.6624 7.2,12 L6.1998,6 L17.7,6 L16.2,12 L16.2,12 Z M5.982,4.8 L4.485,0 L0.6,0 C0.2682,0 0,0.2688 0,0.6 C0,0.9318 0.2682,1.2 0.6,1.2 L3.6,1.2 L4.8066,4.8 L4.8,4.8 L6,12 C6,13.3254 7.0746,14.4 8.4,14.4 L15,14.4 C16.3254,14.4 17.4,13.3254 17.4,12 L19.2,4.8 L5.982,4.8 L5.982,4.8 Z" id="Fill-95"></path>
        </g>
    </g>
</svg>