<?xml version="1.0" encoding="UTF-8" standalone="no"?>
<svg width="32px" height="21px" viewBox="0 0 32 21" version="1.1" xmlns="http://www.w3.org/2000/svg" xmlns:xlink="http://www.w3.org/1999/xlink">
    <!-- Generator: Sketch 43.1 (39012) - http://www.bohemiancoding.com/sketch -->
    <title>Coupon</title>
    <desc>Created with Sketch.</desc>
    <defs></defs>
    <g id="Symbols" stroke="none" stroke-width="1" fill="none" fill-rule="evenodd">
        <g id="Coupon" fill="#8B021B">
            <path d="M29.9982748,17.1822902 C29.9982748,18.2321604 29.1015019,19.0911451 27.9965496,19.0911451 L10.4684431,19.0911451 L2.32042081,10.4822094 L10.440419,1.91145078 L27.9965496,1.91145078 C29.1015019,1.91145078 29.9982748,2.77043549 29.9982748,3.8203057 L29.9982748,17.1822902 L29.9982748,17.1822902 Z M27.9965496,0.00259585731 L10.0530852,0.00259585731 C9.77284364,-0.0164926919 9.48859867,0.0694057796 9.27341321,0.269835546 L0.288669756,9.75684451 C0.0764868877,9.95727428 -0.0125898826,10.224514 0.00142219363,10.4822094 C-0.0125898826,10.7494491 0.0764868877,11.0166888 0.288669756,11.2171185 L9.27341321,20.7041275 C9.46858142,20.8854687 9.72480224,20.9809115 9.98102306,20.9809115 L9.98102306,21 L27.9965496,21 C30.2074551,21 32,19.2915748 32,17.1822902 L32,3.8203057 C32,1.71102101 30.2074551,0.00259585731 27.9965496,0.00259585731 L27.9965496,0.00259585731 Z" id="Fill-13"></path>
            <circle id="Oval" cx="9" cy="10" r="2"></circle>
            <text id="$" font-family="Roboto-Medium, Roboto" font-size="15" font-weight="400">
                <tspan x="14.7373047" y="16">$</tspan>
            </text>
        </g>
    </g>
</svg>