<?xml version="1.0" encoding="UTF-8" standalone="no"?>
<svg width="18px" height="18px" viewBox="0 0 18 18" version="1.1" xmlns="http://www.w3.org/2000/svg" xmlns:xlink="http://www.w3.org/1999/xlink">
    <!-- Generator: Sketch 43.1 (39012) - http://www.bohemiancoding.com/sketch -->
    <title>Directions - drive</title>
    <desc>Created with Sketch.</desc>
    <defs></defs>
    <g id="Symbols" stroke="none" stroke-width="1" fill="none" fill-rule="evenodd">
        <g id="Directions---drive">
            <g id="ic_directions_car_black_24px">
                <path d="M14.19,4.5075 C14.04,4.065 13.62,3.75 13.125,3.75 L4.875,3.75 C4.38,3.75 3.9675,4.065 3.81,4.5075 L2.25,9 L2.25,15 C2.25,15.4125 2.5875,15.75 3,15.75 L3.75,15.75 C4.1625,15.75 4.5,15.4125 4.5,15 L4.5,14.25 L13.5,14.25 L13.5,15 C13.5,15.4125 13.8375,15.75 14.25,15.75 L15,15.75 C15.4125,15.75 15.75,15.4125 15.75,15 L15.75,9 L14.19,4.5075 Z M4.875,12 C4.2525,12 3.75,11.4975 3.75,10.875 C3.75,10.2525 4.2525,9.75 4.875,9.75 C5.4975,9.75 6,10.2525 6,10.875 C6,11.4975 5.4975,12 4.875,12 Z M13.125,12 C12.5025,12 12,11.4975 12,10.875 C12,10.2525 12.5025,9.75 13.125,9.75 C13.7475,9.75 14.25,10.2525 14.25,10.875 C14.25,11.4975 13.7475,12 13.125,12 Z M3.75,8.25 L4.875,4.875 L13.125,4.875 L14.25,8.25 L3.75,8.25 Z" id="Shape" fill="#9B9B9B" fill-rule="nonzero"></path>
                <polygon id="Shape" points="0 0 18 0 18 18 0 18"></polygon>
            </g>
        </g>
    </g>
</svg>