<?xml version="1.0" encoding="UTF-8" standalone="no"?>
<svg width="32px" height="32px" viewBox="0 0 32 32" version="1.1" xmlns="http://www.w3.org/2000/svg" xmlns:xlink="http://www.w3.org/1999/xlink">
    <!-- Generator: Sketch 43.1 (39012) - http://www.bohemiancoding.com/sketch -->
    <title>Facebook</title>
    <desc>Created with Sketch.</desc>
    <defs></defs>
    <g id="Symbols" stroke="none" stroke-width="1" fill="none" fill-rule="evenodd">
        <g id="Facebook" fill="#43619C">
            <path d="M16.0021072,0 C7.16449361,0 0,7.16421055 0,16.001475 C0,24.8345252 7.16449361,31.9987357 16.0021072,31.9987357 C24.8355064,31.9987357 32,24.8345252 32,16.001475 C32,7.16421055 24.8355064,0 16.0021072,0 L16.0021072,0 Z M23.7861188,22.7653326 C23.7861188,23.2373276 23.5543264,23.5449673 23.0865271,23.5449673 L19.15027,23.5449673 L19.15027,17.6450292 L21.1521138,17.6450292 L21.4555512,15.1164843 L19.15027,15.1164843 L19.15027,13.8016409 C19.15027,13.1273623 19.3314895,12.5879394 20.3008034,12.5879394 L21.6789148,12.5879394 L21.6789148,10.5777462 C21.257474,10.5482465 20.6042407,10.4850329 19.7487159,10.4850329 C17.9702357,10.4850329 16.6216252,11.5723072 16.6216252,13.5698576 L16.6216252,15.1164843 L14.5144212,15.1164843 L14.5144212,17.6450292 L16.6216252,17.6450292 L16.6216252,23.5449673 L9.32227051,23.5449673 C8.85025682,23.5449673 8.61424997,23.2373276 8.61424997,22.7653326 L8.61424997,9.00161984 C8.61424997,8.5296248 8.85025682,7.95227371 9.32227051,7.95227371 L23.0865271,7.95227371 C23.5543264,7.95227371 23.7861188,8.5296248 23.7861188,9.00161984 L23.7861188,22.7653326 L23.7861188,22.7653326 Z"></path>
        </g>
    </g>
</svg>