<?xml version="1.0" encoding="UTF-8" standalone="no"?>
<svg width="20px" height="18px" viewBox="0 0 20 18" version="1.1" xmlns="http://www.w3.org/2000/svg" xmlns:xlink="http://www.w3.org/1999/xlink">
    <!-- Generator: Sketch 44.1 (41455) - http://www.bohemiancoding.com/sketch -->
    <title>Favorites</title>
    <desc>Created with Sketch.</desc>
    <defs></defs>
    <g id="Symbols" stroke="none" stroke-width="1" fill="none" fill-rule="evenodd">
        <g id="Favorites" fill="#D97418">
            <path d="M16.7382081,8.17900584 L9.56469035,16.7382081 L2.39117259,8.14373604 C1.53333942,6.95173651 1.19558629,6.14650914 1.19558629,5.04417857 C1.19558629,2.98836794 2.66316847,1.13819815 4.78234518,1.12086215 C6.52550999,1.10651512 8.50181414,2.88674311 9.56469035,4.22878872 C10.5994703,2.93396877 12.6038707,1.12086215 14.3470355,1.12086215 C16.4100197,1.12086215 17.9337944,2.98836794 17.9337944,5.04417857 C17.9337944,6.14650914 17.6665809,7.01151582 16.7382081,8.17900584 L16.7382081,8.17900584 Z M14.3470355,0 C12.354591,0 10.8469567,1.1692834 9.56469035,2.39117259 C8.34339895,1.09455925 6.77478973,0 4.78234518,0 C1.97630414,0 0,2.41269314 0,5.04417857 C0,6.45556819 0.578065973,7.47181654 1.21112892,8.42708999 L8.64349111,17.3377946 C9.47741255,18.2207351 9.63522994,18.2207351 10.4691514,17.3377946 L17.9182518,8.42708999 C18.663102,7.47181654 19.1293807,6.45556819 19.1293807,5.04417857 C19.1293807,2.41269314 17.1530766,0 14.3470355,0 L14.3470355,0 Z" id="Fill-72"></path>
        </g>
    </g>
</svg>