<?xml version="1.0" encoding="UTF-8" standalone="no"?>
<svg width="32px" height="32px" viewBox="0 0 32 32" version="1.1" xmlns="http://www.w3.org/2000/svg" xmlns:xlink="http://www.w3.org/1999/xlink">
    <!-- Generator: Sketch 43.1 (39012) - http://www.bohemiancoding.com/sketch -->
    <title>Google+</title>
    <desc>Created with Sketch.</desc>
    <defs></defs>
    <g id="Symbols" stroke="none" stroke-width="1" fill="none" fill-rule="evenodd">
        <g id="Google+" fill="#F24033">
            <path d="M16.0021072,0 C7.16449361,0 0,7.16449361 0,16.0021072 C0,24.8355064 7.16449361,32 16.0021072,32 C24.8355064,32 32,24.8355064 32,16.0021072 C32,7.16449361 24.8355064,0 16.0021072,0 L16.0021072,0 Z M12.8960885,21.5398393 C9.91228763,21.5398393 7.49321744,19.0912683 7.49321744,16.103253 C7.49321744,13.1152377 9.91228763,10.6750955 12.8960885,10.6750955 C14.295272,10.6750955 15.5722376,11.2061109 16.5289082,12.0784933 C15.3994469,13.148953 15.4373765,13.2079547 14.9906493,13.6546819 C14.4385618,13.1910971 13.8316871,12.8581588 12.8960885,12.8581588 C11.1218227,12.8581588 9.73949691,14.2994864 9.73949691,16.0737521 C9.73949691,17.8480179 11.1218227,19.3314895 12.8960885,19.3314895 C14.6450678,19.3314895 15.3573028,18.4886079 15.8166733,17.2242855 L12.9593046,17.2242855 L12.9593046,15.1170815 L18.0840248,15.1170815 C18.4422494,17.6457263 17.3549322,21.5398393 12.8960885,21.5398393 L12.8960885,21.5398393 Z M24.3382062,16.3814039 L22.652443,16.3814039 L22.652443,18.4886079 L21.3881206,18.4886079 L21.3881206,16.3814039 L19.2809166,16.3814039 L19.2809166,15.1170815 L21.3881206,15.1170815 L21.3881206,13.4313183 L22.652443,13.4313183 L22.652443,15.1170815 L24.3382062,15.1170815 L24.3382062,16.3814039 L24.3382062,16.3814039 Z"></path>
        </g>
    </g>
</svg>