<?xml version="1.0" encoding="UTF-8" standalone="no"?>
<svg width="32px" height="32px" viewBox="0 0 32 32" version="1.1" xmlns="http://www.w3.org/2000/svg" xmlns:xlink="http://www.w3.org/1999/xlink">
    <!-- Generator: Sketch 43.1 (39012) - http://www.bohemiancoding.com/sketch -->
    <title>Linkedin</title>
    <desc>Created with Sketch.</desc>
    <defs></defs>
    <g id="Symbols" stroke="none" stroke-width="1" fill="none" fill-rule="evenodd">
        <g id="Linkedin">
            <path d="M31.4482737,15.7577143 C31.4482737,24.4139147 24.5447499,31.4311837 16.0288607,31.4311837 C7.51297139,31.4311837 0.609447636,24.4139147 0.609447636,15.7577143 C0.609447636,7.10151384 7.51297139,0.084244898 16.0288607,0.084244898 C24.5447499,0.084244898 31.4482737,7.10151384 31.4482737,15.7577143" id="Linkedin-Circle" fill="#187FB8"></path>
            <path d="M9.18544525,13.3884881 L12.1055733,13.3884881 L12.1055733,22.7935605 L9.18544525,22.7935605 L9.18544525,13.3884881 Z M20.0841427,13.2980785 C22.1595049,13.2980785 23.7901466,14.6509195 23.7901466,17.5642544 L23.7901466,22.7935605 L20.4789083,22.7935605 L20.4789083,17.9267183 C20.4789083,16.6527278 19.9610831,15.7828969 18.8218677,15.7828969 C17.9507029,15.7828969 17.466181,16.3699398 17.2407747,16.9355157 C17.1562981,17.1386276 17.1692945,17.4214155 17.1692945,17.7042035 L17.1692945,22.7935605 L13.8889226,22.7935605 C13.8889226,22.7935605 13.9311609,14.1724506 13.8889226,13.3884881 L17.1692945,13.3884881 L17.1692945,14.864765 C17.3630221,14.2191003 18.4112627,13.2980785 20.0841427,13.2980785 Z M10.591493,8.94892404 C11.6689755,8.94892404 12.3313857,9.65114633 12.3525048,10.5791861 C12.3525048,11.4902999 11.6689755,12.2119252 10.5711861,12.2119252 L10.550067,12.2119252 C9.49329741,12.2119252 8.80773746,11.4931897 8.80773746,10.5816631 C8.80773746,9.65279764 9.51319815,8.94892404 10.591493,8.94892404 Z" fill="#FFFFFF"></path>
        </g>
    </g>
</svg>