<?xml version="1.0" encoding="UTF-8" standalone="no"?>
<svg width="20px" height="20px" viewBox="0 0 20 20" version="1.1" xmlns="http://www.w3.org/2000/svg" xmlns:xlink="http://www.w3.org/1999/xlink">
    <!-- Generator: Sketch 43.1 (39012) - http://www.bohemiancoding.com/sketch -->
    <title>Map icon</title>
    <desc>Created with Sketch.</desc>
    <defs></defs>
    <g id="Symbols" stroke="none" stroke-width="1" fill="none" fill-rule="evenodd">
        <g id="Map-icon">
            <g id="ic_place_black_24px">
                <path d="M10,1.66666667 C6.775,1.66666667 4.16666667,4.275 4.16666667,7.5 C4.16666667,11.875 10,18.3333333 10,18.3333333 C10,18.3333333 15.8333333,11.875 15.8333333,7.5 C15.8333333,4.275 13.225,1.66666667 10,1.66666667 Z M10,9.58333333 C8.85,9.58333333 7.91666667,8.65 7.91666667,7.5 C7.91666667,6.35 8.85,5.41666667 10,5.41666667 C11.15,5.41666667 12.0833333,6.35 12.0833333,7.5 C12.0833333,8.65 11.15,9.58333333 10,9.58333333 Z" id="Shape" fill="#4285F4" fill-rule="nonzero"></path>
                <polygon id="Shape" points="0 0 20 0 20 20 0 20"></polygon>
            </g>
        </g>
    </g>
</svg>