<?xml version="1.0" encoding="UTF-8" standalone="no"?>
<svg width="44px" height="22px" viewBox="0 0 44 22" version="1.1" xmlns="http://www.w3.org/2000/svg" xmlns:xlink="http://www.w3.org/1999/xlink">
    <!-- Generator: Sketch 43.1 (39012) - http://www.bohemiancoding.com/sketch -->
    <title>Meter - Best</title>
    <desc>Created with Sketch.</desc>
    <defs></defs>
    <g id="Symbols" stroke="none" stroke-width="1" fill="none" fill-rule="evenodd">
        <g id="Meter---Best">
            <g id="Meter">
                <path d="M24.1644612,16.6970725 L32.9209835,8.53148336 C33.1544925,8.31373275 33.6969949,8.5155409 34.1336893,8.98383822 C34.5695939,9.45128871 34.7338571,10.007394 34.5003481,10.2251446 L25.4217936,18.6910336 C25.44116,18.8263165 25.451181,18.9646185 25.451181,19.1052632 C25.451181,20.7039822 24.1563625,22 22.5591231,22 C20.9618836,22 19.6670652,20.7039822 19.6670652,19.1052632 C19.6670652,17.5065441 20.9618836,16.2105263 22.5591231,16.2105263 C23.1530621,16.2105263 23.7051838,16.3897332 24.1644612,16.6970725 Z M7.96588423,16.3590677 C8.41820209,16.8118045 9.15047114,16.8118045 9.60163217,16.3590677 C10.05395,15.9063308 10.05395,15.1745414 9.60163217,14.7218045 L7.96588423,13.0845414 C7.51356638,12.6318045 6.78245415,12.6318045 6.33013629,13.0845414 C5.87781844,13.5372782 5.87781844,14.2690677 6.33013629,14.7218045 L7.96588423,16.3590677 L7.96588423,16.3590677 Z M21.8477621,7.77443609 C22.4863285,7.77443609 23.0045852,7.25685714 23.0045852,6.61654135 L23.0045852,4.30075188 C23.0045852,3.66043609 22.4863285,3.14285714 21.8477621,3.14285714 C21.2091957,3.14285714 20.6909389,3.66043609 20.6909389,4.30075188 L20.6909389,6.61654135 C20.6909389,7.25685714 21.2091957,7.77443609 21.8477621,7.77443609 L21.8477621,7.77443609 Z M35.7296399,16.3590677 L37.3653879,14.7218045 C37.8177057,14.2690677 37.8177057,13.5372782 37.3653879,13.0845414 C36.9142268,12.6318045 36.1819578,12.6318045 35.7296399,13.0845414 L34.093892,14.7218045 C33.6415741,15.1745414 33.6415741,15.9063308 34.093892,16.3590677 C34.5462098,16.8118045 35.2773221,16.8118045 35.7296399,16.3590677 L35.7296399,16.3590677 Z" id="Fill-79" fill="#3F6F72"></path>
                <path d="M3.89432946,18.5263158 C5.61198048,10.0746105 13.0434124,3.70526316 22,3.70526316 C30.9565876,3.70526316 38.3880195,10.0746105 40.1056705,18.5263158 L44,18.5263158 C42.5784957,8.07562105 33.2831903,-5.68434189e-14 22,-5.68434189e-14 C10.7168097,-5.68434189e-14 1.42150429,8.07562105 0,18.5263158 L3.89432946,18.5263158 L3.89432946,18.5263158 Z" id="Path" fill="#FF7A03"></path>
                <path d="M9.77882285,3.5192241 C4.53464696,6.84892168 0.852240104,12.2607693 0,18.5263158 L3.89432946,18.5263158 C4.92034041,13.4778269 7.98507195,9.17233915 12.1957888,6.52355255 L9.77882285,3.5192241 Z" id="Combined-Shape" fill="#A90101"></path>
                <path d="M32.6891638,2.62968335 C38.7419514,5.83080117 43.066991,11.6669681 44,18.5263158 L40.1056705,18.5263158 C38.9767467,12.9714437 35.3796076,8.31609981 30.503469,5.77742717 L32.6891638,2.62968335 Z" id="Combined-Shape" fill="#07AC00"></path>
            </g>
        </g>
    </g>
</svg>