<?xml version="1.0" encoding="UTF-8" standalone="no"?>
<svg width="21px" height="20px" viewBox="0 0 21 20" version="1.1" xmlns="http://www.w3.org/2000/svg" xmlns:xlink="http://www.w3.org/1999/xlink">
    <!-- Generator: Sketch 43.1 (39012) - http://www.bohemiancoding.com/sketch -->
    <title>search icon</title>
    <desc>Created with Sketch.</desc>
    <defs></defs>
    <g id="Symbols" stroke="none" stroke-width="1" fill="none" fill-rule="evenodd">
        <g id="search-icon" fill="#FFFFFF">
            <path d="M14.0070064,12.4020554 C14.0768018,12.4436542 14.1425784,12.4944503 14.2025579,12.5544299 L19.7770722,18.1289441 C20.1686147,18.5204867 20.168247,19.1556703 19.7775031,19.5464141 L19.5464141,19.7775031 C19.1551096,20.1688077 18.5192751,20.1674032 18.1289441,19.7770722 L12.5544299,14.2025579 C12.4944045,14.1425326 12.4435899,14.076781 12.4019807,14.0070619 C11.1084736,14.9692983 9.50540742,15.5387005 7.76935024,15.5387005 C3.47845658,15.5387005 0,12.0602439 0,7.76935024 C0,3.47845658 3.47845658,0 7.76935024,0 C12.0602439,0 15.5387005,3.47845658 15.5387005,7.76935024 C15.5387005,9.50544082 14.9692764,11.1085353 14.0070064,12.4020554 Z M7.76935024,13.9848304 C11.2020652,13.9848304 13.9848304,11.2020652 13.9848304,7.76935024 C13.9848304,4.33663531 11.2020652,1.55387005 7.76935024,1.55387005 C4.33663531,1.55387005 1.55387005,4.33663531 1.55387005,7.76935024 C1.55387005,11.2020652 4.33663531,13.9848304 7.76935024,13.9848304 Z" id="Search-Icon"></path>
        </g>
    </g>
</svg>