<?xml version="1.0" encoding="UTF-8" standalone="no"?>
<svg width="38px" height="38px" viewBox="0 0 38 38" version="1.1" xmlns="http://www.w3.org/2000/svg" xmlns:xlink="http://www.w3.org/1999/xlink">
    <!-- Generator: Sketch 43.1 (39012) - http://www.bohemiancoding.com/sketch -->
    <title>Send Icon</title>
    <desc>Created with Sketch.</desc>
    <defs>
        <path d="M2,17 C2,8.71538462 8.71538462,2 17,2 C25.2846154,2 32,8.71538462 32,17 C32,25.2846154 25.2846154,32 17,32 C8.71538462,32 2,25.2846154 2,17 Z M21.84025,14.859 L17.27425,10.293 C17.08625,10.105 16.83225,10 16.56725,10 C16.30125,10 16.04725,10.105 15.86025,10.293 L11.29325,14.859 C10.90225,15.25 10.90225,15.883 11.29325,16.273 C11.48825,16.468 11.74425,16.566 12.00025,16.566 C12.25625,16.566 12.51225,16.468 12.70725,16.273 L15.56125,13.42 L15.56125,22.897 C15.56125,23.45 16.00825,23.897 16.56125,23.897 C17.11325,23.897 17.56125,23.45 17.56125,22.897 L17.56125,13.408 L20.42625,16.273 C20.81725,16.664 21.44925,16.664 21.84025,16.273 C22.23125,15.882 22.23125,15.25 21.84025,14.859 Z" id="path-1"></path>
        <filter x="-20.0%" y="-20.0%" width="140.0%" height="140.0%" filterUnits="objectBoundingBox" id="filter-2">
            <feOffset dx="0" dy="0" in="SourceAlpha" result="shadowOffsetOuter1"></feOffset>
            <feGaussianBlur stdDeviation="2" in="shadowOffsetOuter1" result="shadowBlurOuter1"></feGaussianBlur>
            <feColorMatrix values="0 0 0 0 0   0 0 0 0 0   0 0 0 0 0  0 0 0 0.5 0" type="matrix" in="shadowBlurOuter1"></feColorMatrix>
        </filter>
    </defs>
    <g id="Symbols" stroke="none" stroke-width="1" fill="none" fill-rule="evenodd">
        <g id="Load-More-Icon" transform="translate(2.000000, 2.000000)">
            <g id="Send-Icon" transform="translate(17.000000, 17.000000) scale(1, -1) translate(-17.000000, -17.000000) ">
                <use fill="black" fill-opacity="1" filter="url(#filter-2)" xlink:href="#path-1"></use>
                <use fill="#FFFFFF" fill-rule="evenodd" xlink:href="#path-1"></use>
            </g>
        </g>
    </g>
</svg>