<?xml version="1.0" encoding="UTF-8" standalone="no"?>
<svg width="21px" height="24px" viewBox="0 0 21 24" version="1.1" xmlns="http://www.w3.org/2000/svg" xmlns:xlink="http://www.w3.org/1999/xlink">
    <!-- Generator: Sketch 44.1 (41455) - http://www.bohemiancoding.com/sketch -->
    <title>Share icon</title>
    <desc>Created with Sketch.</desc>
    <defs></defs>
    <g id="Symbols" stroke="none" stroke-width="1" fill="none" fill-rule="evenodd" opacity="0.539999962">
        <g id="Share-icon" fill="#4A4A4A">
            <g id="ic_share_black_24px" transform="translate(1.000000, 2.000000)">
                <g id="Group">
                    <path d="M15,14.08 C14.24,14.08 13.56,14.38 13.04,14.85 L5.91,10.7 C5.96,10.47 6,10.24 6,10 C6,9.76 5.96,9.53 5.91,9.3 L12.96,5.19 C13.5,5.69 14.21,6 15,6 C16.66,6 18,4.66 18,3 C18,1.34 16.66,0 15,0 C13.34,0 12,1.34 12,3 C12,3.24 12.04,3.47 12.09,3.7 L5.04,7.81 C4.5,7.31 3.79,7 3,7 C1.34,7 0,8.34 0,10 C0,11.66 1.34,13 3,13 C3.79,13 4.5,12.69 5.04,12.19 L12.16,16.35 C12.11,16.56 12.08,16.78 12.08,17 C12.08,18.61 13.39,19.92 15,19.92 C16.61,19.92 17.92,18.61 17.92,17 C17.92,15.39 16.61,14.08 15,14.08 Z" id="Shape"></path>
                </g>
            </g>
        </g>
    </g>
</svg>