<?xml version="1.0" encoding="UTF-8" standalone="no"?>
<svg width="32px" height="32px" viewBox="0 0 32 32" version="1.1" xmlns="http://www.w3.org/2000/svg" xmlns:xlink="http://www.w3.org/1999/xlink">
    <!-- Generator: Sketch 43.1 (39012) - http://www.bohemiancoding.com/sketch -->
    <title>Twitter</title>
    <desc>Created with Sketch.</desc>
    <defs></defs>
    <g id="Symbols" stroke="none" stroke-width="1" fill="none" fill-rule="evenodd">
        <g id="Twitter">
            <path d="M32,15.7577143 C32,24.4139147 24.955588,31.4311837 16.2659051,31.4311837 C7.57622213,31.4311837 0.531810143,24.4139147 0.531810143,15.7577143 C0.531810143,7.10151384 7.57622213,0.084244898 16.2659051,0.084244898 C24.955588,0.084244898 32,7.10151384 32,15.7577143" id="Twitter-Circle" fill="#24A9E6"></path>
            <path d="M23.4077072,9.46619889 C22.7918702,9.83857073 22.1113828,10.1093866 21.3840653,10.2542896 C20.8046979,9.62266112 19.9766749,9.2279965 19.0599647,9.2279965 C17.3027988,9.2279965 15.8767591,10.6844575 15.8767591,12.4806769 C15.8767591,12.7353925 15.9041112,12.9830899 15.9588155,13.2212923 C13.3122915,13.0854716 10.9662263,11.792078 9.39472312,9.82164474 C9.12037315,10.3038291 8.96372015,10.8632125 8.96372015,11.4585121 C8.96372015,12.586774 9.52568172,13.5825178 10.3806424,14.1658453 C9.85929459,14.1501578 9.36737101,14.002365 8.93719689,13.7600343 L8.93719689,13.8000787 C8.93719689,15.376673 10.0350112,16.6919465 11.4929616,16.9895963 C11.2260713,17.0659697 10.9442617,17.10395 10.6537491,17.10395 C10.4486083,17.10395 10.2484405,17.084547 10.0544892,17.0465667 C10.4597978,18.338309 11.6351097,19.2791465 13.0288241,19.3039162 C11.9392983,20.1770497 10.5654764,20.6972144 9.07395745,20.6972144 C8.81701337,20.6972144 8.56297028,20.6823525 8.31431472,20.6526289 C9.72336289,21.5740634 11.3980581,22.1128054 13.1958378,22.1128054 C19.0537483,22.1128054 22.2560175,17.1572049 22.2560175,12.8584156 C22.2560175,12.7168152 22.2535309,12.5756276 22.2481434,12.4369171 C22.8701967,11.9778511 23.4106081,11.40567 23.8358091,10.7534 C23.2655591,11.011831 22.6513798,11.1868706 22.0073619,11.2653081 C22.6650559,10.8632125 23.1698267,10.2253916 23.4077072,9.46619889" fill="#FFFFFF"></path>
        </g>
    </g>
</svg>